HIERARCHY
ROOT pelvis
{
  OFFSET 0 100 0
  CHANNELS 6 Xposition Yposition Zposition Zrotation Xrotation Yrotation
  JOINT pelvis_right_femur
  {
    OFFSET -10.78128 -3.44521 -0.5502486
    CHANNELS 3 Zrotation Xrotation Yrotation
    JOINT right_femur_tibia
    {
      OFFSET -0.8047443 -44.0398 -0.1307829
      CHANNELS 3 Zrotation Xrotation Yrotation
      JOINT right_tibia_foot
      {
        OFFSET 3.006224 -47.83518 -5
        CHANNELS 3 Zrotation Xrotation Yrotation
        End Site
        {
          OFFSET 0 -5 15
        }
      }
    }
  }
  JOINT pelvis_left_femur
  {
    OFFSET 10.78128 -3.44521 -0.5502486
    CHANNELS 3 Zrotation Xrotation Yrotation
    JOINT left_femur_tibia
    {
      OFFSET 0.8047443 -44.0398 -0.1307829
      CHANNELS 3 Zrotation Xrotation Yrotation
      JOINT left_tibia_foot
      {
        OFFSET -4.370144 -48.10324 -4.275266
        CHANNELS 3 Zrotation Xrotation Yrotation
        End Site
        {
          OFFSET 0 -5 15
        }
      }
    }
  }
  JOINT pelvis_spine1
  {
    OFFSET 0 6.468898 -3.129235
    CHANNELS 3 Zrotation Xrotation Yrotation
    JOINT spine1
    {
      OFFSET 0 23.15396 4.99043
      CHANNELS 3 Zrotation Xrotation Yrotation
      JOINT spine2
      {
        OFFSET 0 20.79997 -5.064912
        CHANNELS 3 Zrotation Xrotation Yrotation
        JOINT neck
        {
          OFFSET 0 14.38658 9.616178
          CHANNELS 3 Zrotation Xrotation Yrotation
          End Site
          {
            OFFSET 0 20 0
          }
        }
      }
      JOINT right_manubrium
      {
        OFFSET -5.722621 16.35077 3.967754
        CHANNELS 3 Zrotation Xrotation Yrotation
        JOINT right_clavicle
        {
          OFFSET -13.16364 1.694482 -4.693211
          CHANNELS 3 Zrotation Xrotation Yrotation
          JOINT right_humerus
          {
            OFFSET -28.5034 -0.3100689 -2.792744
            CHANNELS 3 Zrotation Xrotation Yrotation
            JOINT right_radius
            {
              OFFSET -25.15693 0.02248979 -1.271978
              CHANNELS 3 Zrotation Xrotation Yrotation
              End Site
              {
                OFFSET -15 0 0
              }
            }
          }
        }
      }
      JOINT left_manubrium
      {
        OFFSET 5.722621 16.35077 3.967754
        CHANNELS 3 Zrotation Xrotation Yrotation
        JOINT left_clavicle
        {
          OFFSET 13.16364 1.694482 -4.693211
          CHANNELS 3 Zrotation Xrotation Yrotation
          JOINT left_humerus
          {
            OFFSET 29.39168 -1.063119 -2.237045
            CHANNELS 3 Zrotation Xrotation Yrotation
            JOINT left_radius
            {
              OFFSET 24.59957 -0.9528479 0.9047498
              CHANNELS 3 Zrotation Xrotation Yrotation
              End Site
              {
                OFFSET 15 -0 -0
              }
            }
          }
        }
      }
    }
  }
}
MOTION
Frames: 13
Frame Time: 0.0416666666667
-666.1732 122.52 3163.495 -4.401106 -6.136775 -42.73132 4.818136 -13.76171 4.699981 -0 11.70899 -0 4.197412 2.584681 -9.654221 -3.522887 10.81463 -4.364743 -0 42.41347 -0 -8.460758 -11.55635 14.80128 0.5116549 1.7915 4.967822 1.969357 10.85255 -8.335799 1.151907 21.64816 2.107889 -2.747514 -24.29996 6.846263 -7.971492 -26.79929 12.07458 101.3903 29.84222 -19.72561 -0 0 13.72102 -12.49345 2.071577 7.406128 -1.037884 -17.77882 -5.071145 -80.4422 11.18217 24.97944 0 0 -29.41229 10.51342 12.23377 -1.922992
-671.4428 123.2806 3168.691 -5.038863 -6.56875 -43.44599 5.198698 -10.07409 5.22813 -0 12.5405 -0 3.842455 1.461659 -9.534446 -3.111973 7.635538 -4.309127 -0 46.3119 -0 -8.95288 -10.32466 15.93587 0.5652061 1.664101 5.17403 1.857098 11.06938 -8.195051 1.151577 21.42083 1.81317 -2.949759 -23.84551 6.628247 -7.63551 -27.3109 12.08412 100.6864 29.71161 -18.90013 -0 0 14.87656 -12.53894 2.934668 8.065119 -1.261825 -17.53032 -5.238255 -80.80715 11.25029 26.23034 0 0 -29.04543 9.995515 12.23578 -0.8567759
-676.5819 124.0956 3173.689 -5.659487 -7.106163 -44.28793 5.26733 -5.936745 5.568637 -0 13.06937 -0 3.515304 0.006697442 -9.274488 -2.694254 3.720693 -4.278599 -0 48.56709 -0 -9.360298 -9.519765 17.23633 0.6266682 1.504002 5.416278 1.72258 11.31235 -8.02864 1.151326 21.15234 1.479024 -3.168799 -23.32234 6.378562 -7.260571 -27.898 12.08886 99.85347 29.51431 -17.92695 -0 0 16.23232 -12.64797 3.944401 8.832313 -1.492914 -17.25689 -5.409991 -81.26278 11.31575 27.67572 0 0 -28.56957 9.39352 12.23831 0.3662859
-681.5665 124.8075 3178.494 -6.207784 -7.630433 -45.19563 5.097224 -1.59014 5.762082 -0 13.32344 -0 3.253834 -1.757855 -8.852504 -2.229948 -0.6815045 -4.24868 -0 48.69326 -0 -9.691459 -9.144964 18.59902 0.6919521 1.314623 5.682019 1.572121 11.56504 -7.84296 1.150265 20.85205 1.12791 -3.387302 -22.75625 6.111635 -6.863845 -28.52637 12.08789 98.92679 29.25108 -16.85327 -0 0 17.72351 -12.82654 5.057737 9.678774 -1.712644 -16.97597 -5.573791 -81.79368 11.37376 29.23978 0 0 -28.01616 8.728848 12.23443 1.69906
-686.3969 125.283 3183.149 -6.622674 -7.989933 -46.10998 4.790437 2.686936 5.857936 -0 13.46675 -0 3.066679 -3.819217 -8.23789 -1.686974 -5.295664 -4.199599 -0 46.58011 -0 -9.940119 -9.084582 19.87947 0.7574968 1.101041 5.957221 1.412964 11.81414 -7.645835 1.148324 20.53318 0.783669 -3.587626 -22.17543 5.842836 -6.463781 -29.15705 12.08173 97.95431 28.92754 -15.74046 -0 0 19.26857 -13.07409 6.224183 10.5682 -1.905391 -16.70919 -5.722324 -82.37762 11.42189 30.83487 0 0 -27.4286 8.02621 12.21729 3.089217
-691.0939 125.4431 3187.724 -6.835674 -8.061618 -46.9844 4.423168 6.61001 5.88308 -0 13.68465 -0 2.951603 -6.083983 -7.416624 -1.082547 -9.826376 -4.121757 -0 42.59783 -0 -10.06987 -9.166867 20.91305 0.8203332 0.8715379 6.226761 1.253065 12.05003 -7.446548 1.146392 20.2137 0.4697126 -3.753834 -21.61071 5.588006 -6.080629 -29.74871 12.07218 96.9965 28.55686 -14.66151 -0 0 20.77126 -13.38103 7.383896 11.45516 -2.060121 -16.47958 -5.853454 -82.98519 11.46086 32.36564 0 0 -26.85594 7.31546 12.18166 4.47593
-695.6959 125.2798 3192.302 -6.798034 -7.815715 -47.79025 4.02026 9.946679 5.846033 -0 14.13321 -0 2.913905 -8.305347 -6.429258 -0.4989836 -13.95673 -4.027557 -0 37.53618 -0 -10.02707 -9.241751 21.57185 0.8781331 0.6383981 6.475048 1.100879 12.2666 -7.255846 1.146156 19.91562 0.2068194 -3.873725 -21.09448 5.362555 -5.735799 -30.26129 12.06205 96.12208 28.16134 -13.69496 -0 0 22.1271 -13.72716 8.469132 12.2855 -2.171367 -16.3086 -5.96929 -83.58018 11.4943 33.73506 0 0 -26.34672 6.632455 12.12585 5.788693
-700.2524 124.8522 3196.959 -6.517872 -7.340015 -48.51645 3.564871 12.5682 5.761647 -0 14.95688 -0 2.968432 -10.10668 -5.38783 -0.06445008 -17.37472 -3.963529 -0 32.3667 -0 -9.778795 -9.239167 21.82316 0.9292703 0.4171852 6.687207 0.9649548 12.46057 -7.085543 1.149629 19.66219 0.01056893 -3.940601 -20.65772 5.179859 -5.449527 -30.66076 12.0548 95.39897 27.771 -12.91476 -0 0 23.23585 -14.08239 9.410952 13.00082 -2.239243 -16.21298 -6.074487 -84.12184 11.5274 34.85364 0 0 -25.94346 6.017366 12.05347 6.951092
-704.8151 124.2652 3201.752 -6.072702 -6.803902 -49.16094 3.030074 14.45349 5.665216 -0 16.31518 -0 3.129015 -11.10223 -4.450911 0.09310058 -19.83036 -4.003673 -0 27.93186 -0 -9.344872 -9.180305 21.7414 0.9727966 0.224418 6.850659 0.8533319 12.63019 -6.947551 1.158428 19.47352 -0.1108137 -3.954129 -20.32561 5.049395 -5.237617 -30.92406 12.05378 94.88257 27.41892 -12.37828 -0 0 24.01753 -14.41094 10.14961 13.54698 -2.268234 -16.20211 -6.173829 -84.5694 11.56453 35.65028 0 0 -25.67804 5.510318 11.97398 7.889453
-709.4276 123.6417 3206.71 -5.582802 -6.383019 -49.71671 2.412317 15.63385 5.600466 -0 18.36399 -0 3.401008 -11.03978 -3.769503 -0.1000815 -21.18387 -4.214054 -0 24.71499 -0 -8.794073 -9.140316 21.46018 1.008236 0.07452673 6.9565 0.7729092 12.77339 -6.852508 1.17313 19.36258 -0.1570423 -3.919752 -20.11401 4.975543 -5.109109 -31.04169 12.06145 94.60603 27.13475 -12.11746 -0 0 24.42544 -14.67813 10.64381 13.88346 -2.264939 -16.27665 -6.269667 -84.8875 11.60679 36.08078 0 0 -25.56892 5.14599 11.90124 8.542832
-714.1157 123.099 3211.832 -5.163725 -6.189692 -50.16206 1.749208 16.11495 5.593181 -0 21.19167 -0 3.782562 -9.886343 -3.438424 -0.6286051 -21.40967 -4.609463 -0 22.78331 -0 -8.206197 -9.193316 21.09967 1.035229 -0.02251291 7.000105 0.7289471 12.88629 -6.808417 1.193015 19.3336 -0.1342466 -3.84671 -20.02861 4.957779 -5.066281 -31.01689 12.07849 94.57734 26.93952 -12.13682 -0 0 24.44988 -14.85714 10.87413 13.98928 -2.235584 -16.42911 -6.360115 -85.05089 11.65059 36.13026 0 0 -25.62054 4.949479 11.85044 8.869894
-718.8814 122.7303 3217.089 -4.888321 -6.243596 -50.46233 1.114171 15.83282 5.63225 -0 24.74792 -0 4.26351 -7.832614 -3.478994 -1.393217 -20.56377 -5.137396 -0 21.88453 -0 -7.631949 -9.377447 20.71833 1.053172 -0.06193744 6.980825 0.7247346 12.96255 -6.819682 1.216271 19.38311 -0.05197686 -3.745453 -20.06712 4.992178 -5.106823 -30.8618 12.10351 94.7833 26.84362 -12.41844 -0 0 24.11216 -14.93322 10.83986 13.86333 -2.184244 -16.64576 -6.438645 -85.04716 11.68807 35.80952 0 0 -25.82445 4.934658 11.83424 8.850594
-723.7022 122.5922 3222.429 -4.774813 -6.486016 -50.58094 0.5920774 14.67353 5.669953 -0 28.79842 -0 4.812483 -5.239435 -3.850473 -2.25179 -18.74979 -5.701178 -0 21.60926 -0 -7.079768 -9.694595 20.31176 1.060979 -0.04345978 6.901187 0.7613561 12.9938 -6.886644 1.240463 19.50287 0.07989682 -3.625431 -20.22273 5.073416 -5.226615 -30.59308 12.13314 95.19723 26.84778 -12.93004 -0 0 23.45358 -14.90457 10.55229 13.52052 -2.112204 -16.90902 -6.49497 -84.87722 11.70913 35.14853 0 0 -26.16092 5.104628 11.8596 8.483976
